<svg xmlns="http://www.w3.org/2000/svg" version="1.1" xmlns:xlink="http://www.w3.org/1999/xlink" xmlns:svgjs="http://svgjs.dev/svgjs" width="100%" height="100%" viewBox="0 0 1000 600"><rect width="1000" height="600" x="0" y="0" fill="#330033"/><g><circle r="166.66666666666666" cx="328.22162882486975" cy="350.4438657089602" fill="#ffffff" transform="matrix(0.7737303908660559,0,0,0.7737303908660559,0,28.85093964477781)"/><path d="M349.0696152400958 288.3546288703769Q347.51445088835294 288.2372579759058 344.2280658431605 288.2372579759058L344.2280658431605 288.2372579759058Q335.4545914814414 288.2372579759058 327.9135115116694 289.9097932221198Q320.3724315418975 291.552985744716 315.4428539741088 294.076459975846Q310.48393368270234 296.5999342069759 309.0461402254307 299.27012205619474L309.0461402254307 299.27012205619474Q307.90177400433686 301.2360845385866 307.3442622555989 304.58115503101465Q306.757407783243 307.95556824706046 306.757407783243 311.15392512139954L306.757407783243 311.15392512139954Q306.757407783243 319.07646049820283 310.3372200646134 323.88866717152035Q313.887689622366 328.6715311212201 320.020318858484 331.7231743774701Q326.15294809460204 334.77481763372026 338.9463755919584 339.61636703065557L338.9463755919584 339.61636703065557Q350.39003780289636 343.9590901260885 357.8724323254327 348.4778695632281Q365.3548268479691 353.02599172398556 370.04966262681546 360.50838624652187Q374.74449840566183 367.9907807690583 374.74449840566183 379.22904391467176L374.74449840566183 379.22904391467176Q374.74449840566183 392.9614385677973 368.14238559165915 403.4661336229661Q361.54027277765647 414.00017140175254 349.77384060692276 419.7220025072215Q338.0367511598069 425.4438336126905 322.95459122026296 425.4438336126905L322.95459122026296 425.4438336126905Q310.7773609188803 425.4438336126905 299.86186773306247 421.95204950217357Q288.9170318236269 418.4309226680388 281.69872181365065 413.383974205779L281.69872181365065 413.383974205779L289.44520084874716 380.0506401759698L300.27266586371155 382.955569814131L302.444027411428 410.3910163967644Q306.46398054706515 410.6844436329423 311.2175017731471 410.6844436329423L311.2175017731471 410.6844436329423Q323.6881593107077 410.6844436329423 335.0731360744102 408.072941230959Q346.4874555617303 405.43209610535797 350.0966105667185 400.2677767486269L350.0966105667185 400.2677767486269Q351.65177491846134 398.0083870300571 352.56139935061276 393.87106299994883Q353.5003665063821 389.7630816934582 353.5003665063821 385.30298770355415L353.5003665063821 385.30298770355415Q353.5003665063821 376.76425513077737 349.77384060692276 371.45322215595746Q346.0766574310813 366.14218918113755 340.44285449646566 363.0905459248874Q334.8383942854678 360.03890266863726 324.42172740115245 356.018949533L324.42172740115245 356.018949533Q312.9487224665967 351.6762264375672 305.231586155118 346.95204793510305Q297.48510712002155 342.1985267090211 292.52618682861504 334.30533405583566Q287.5672665372086 326.4121414026502 287.5672665372086 314.44031016659204L287.5672665372086 314.44031016659204Q287.5672665372086 302.87927706118285 294.28675024568247 294.0177745286104Q300.9768912305385 285.1562719960379 312.2444970997698 280.3147225991026Q323.4827602453832 275.4438304785495 336.68698587338855 275.4438304785495L336.68698587338855 275.4438304785495Q341.93933340097294 275.4438304785495 347.7785354009131 276.4708258051721Q353.58839467723544 277.5271638554126 356.99215061689904 278.436788287564L356.99215061689904 278.436788287564L367.8489583554812 278.025990156915L371.4581133604694 314.029512035943L361.86304273745213 316.61167171430844L349.0696152400958 288.3546288703769Z " fill="#000033" transform="matrix(0.7737303908660559,0,0,0.7737303908660559,0,28.85093964477781)"/><path d="M598.4527658186737 291.7855414064501L578.9452281302315 285.93629517529433L580.965328632744 276.0769986928823L619.2266351654073 276.0769986928823L672.322112552342 396.49910924564614L721.6185949644023 276.0769986928823L762.9552783814877 276.0769986928823L761.1763839091259 286.14735045167623L742.1814090347541 291.87599366775663L742.1814090347541 408.16745095418884L762.322112552342 413.98654643157573L760.4226150649048 422.79056653207823L701.3874391855079 422.79056653207823L703.0758813965631 413.77549115519383L721.8296502407842 408.04684793911343L721.8296502407842 301.01167205971643Q704.4628160699299 351.03177256222904 675.5180924518395 420.13730020041993L675.5180924518395 420.13730020041993L660.4728663211863 424.38855648182704L610.1211075272164 301.6448378888622Q611.9301527533471 315.63478763760594 612.3824140598797 342.3483554768018Q612.8648261201812 369.06192331599783 612.8648261201812 408.16745095418884L612.8648261201812 408.16745095418884L633.3371879292265 413.89609417026924L631.5281427030958 422.79056653207823L578.2216100397792 422.79056653207823L580.1211075272164 413.56443587881193L598.4527658186737 408.04684793911343L598.4527658186737 291.7855414064501ZM789.3673386829953 337.97649618031943L772.7241226025933 330.68001376825913L774.5331678287239 322.08704894413853L808.3321628035983 322.08704894413853L808.3321628035983 379.97649618031943Q808.3321628035983 391.19257658232954 811.3472381804827 398.30815447177673Q814.3623135573671 405.39358160745513 818.6135698387742 408.46895849187723L818.6135698387742 408.46895849187723Q820.8447256176687 410.1875514567013 824.2216100397792 410.1875514567013L824.2216100397792 410.1875514567013Q830.7040221000807 410.1875514567013 839.0256301402817 408.46895849187723Q847.3472381804827 406.7805162808219 853.0758813965631 404.33830522554564L853.0758813965631 404.33830522554564L853.0758813965631 337.97649618031943L833.6587959694274 330.68001376825913L835.5884442106335 322.08704894413853L871.9201025020907 322.08704894413853L871.9201025020907 402.43880773810844Q873.7291477282215 405.09207406976674 877.2266351654073 407.35338060243004Q880.7241226025933 409.6448378888621 884.4326653161611 411.09207406976674Q888.1412080297289 412.50915949690244 890.2819115473169 412.84081778835963L890.2819115473169 412.84081778835963L888.8949768739501 419.17247607981693Q885.1864341603822 421.10212432102304 877.3472381804827 423.27297859237973Q869.5080422005833 425.44383286373653 864.7140723513369 425.44383286373653L864.7140723513369 425.44383286373653Q863.8698512458093 422.24785296423903 861.0658311453069 416.57951125569633Q858.2618110448043 410.91116954715363 855.4879416980707 408.37850623057074L855.4879416980707 408.37850623057074Q848.9452281302315 415.3734811049425 838.1814090347541 420.40865698433953Q827.4175899392767 425.44383286373653 817.1361829041008 425.44383286373653L817.1361829041008 425.44383286373653Q809.5984944618897 425.44383286373653 803.357288431739 421.82574241147523Q797.0859316478194 418.23780271298284 793.2266351654073 409.79559165770644Q789.3673386829953 401.38353135619883 789.3673386829953 387.60463688383703L789.3673386829953 387.60463688383703L789.3673386829953 337.97649618031943ZM948.5633185824927 328.87096854212854Q941.7793989845028 329.41368210996774 934.6336703412867 331.5845363813244Q927.4879416980707 333.7553906526812 922.8145748638998 337.13227507479183L922.8145748638998 337.13227507479183Q919.6185949644023 339.4840338687616 919.6185949644023 344.54936050192754L919.6185949644023 344.54936050192754Q919.6185949644023 352.84081778835963 930.1110572759601 358.32825497428934L930.1110572759601 358.32825497428934Q932.8849266226937 359.83579266273154 935.8095497382717 360.8307675371033Q938.7040221000807 361.85589316524414 944.0105547633973 363.42373236122404L944.0105547633973 363.42373236122404Q950.2517607935481 365.35338060243004 954.141208029729 366.77046602956574Q958.0005045121411 368.1875514567013 961.6185949644023 370.53931025067124L961.6185949644023 370.53931025067124Q966.8045246126435 373.82574241147523 969.7592984819903 379.28302884363603Q972.7442231051059 384.74031527579683 972.7442231051059 392.24785296423903L972.7442231051059 392.24785296423903Q972.7442231051059 403.07197356725413 967.7693487332465 410.54936050192754Q962.7643236076184 418.02674743660083 954.2015095372667 421.73529015016874Q945.6085447131461 425.44383286373653 934.784424110131 425.44383286373653L934.784424110131 425.44383286373653Q925.8899517483219 425.44383286373653 919.4075396880204 423.84584291398784Q912.9552783814877 422.24785296423903 908.5532683312365 419.83579266273154Q904.1512582809852 417.39358160745513 899.4778914468143 413.68503889388734L899.4778914468143 413.68503889388734L904.2718612960606 390.46895849187723L915.3974894367641 393.00162180846013L919.3170874267139 413.4739836175053Q928.6336703412867 413.4739836175053 937.7090472257089 411.9664459290631Q946.7542733563621 410.48905899438984 952.0608060196787 407.11217457227923L952.0608060196787 407.11217457227923Q955.8899517483219 404.66996351700294 955.8899517483219 398.60966200946524L955.8899517483219 398.60966200946524Q955.8899517483219 394.59961175820894 954.141208029729 391.31317959740494Q952.3924643111359 388.02674743660083 948.2618110448043 385.25287808986724L948.2618110448043 385.25287808986724Q945.4879416980707 383.47398361750544 942.1110572759601 382.08704894413853Q938.7040221000807 380.70011427077173 933.5180924518395 379.13227507479183L933.5180924518395 379.13227507479183Q932.6738713463119 378.92121979840994 929.6587959694275 377.83579266273154Q926.6135698387741 376.7805162808219 924.0809065221913 375.78554140645014Q921.5482432056083 374.76041577830944 919.5281427030958 373.61468713509333L919.5281427030958 373.61468713509333Q912.4125648136485 369.6950891451435 908.2819115473169 363.212677084842Q904.1512582809852 356.76041577830944 904.1512582809852 348.16745095418884L904.1512582809852 348.16745095418884Q904.1512582809852 338.51920974815863 909.6085447131461 332.06694844162604Q915.0658311453068 325.5845363813244 923.930152753347 322.5091594969023Q932.7643236076184 319.43378261248023 943.2567859191761 319.43378261248023L943.2567859191761 319.43378261248023Q955.2567859191761 319.43378261248023 963.3974894367641 324.10714944665114L963.3974894367641 324.10714944665114Q970.7241226025933 328.56946100444003 970.7241226025933 334.26795346675164L970.7241226025933 334.26795346675164Q970.7241226025933 337.34333035117373 968.8246251151561 340.32825497428934Q966.8949768739501 343.28302884363603 964.0005045121409 345.09207406976674Q961.0758813965631 346.90111929589733 958.3321628035983 346.90111929589733L958.3321628035983 346.90111929589733Q954.7140723513369 346.90111929589733 951.7592984819903 345.42373236122404L951.7592984819903 345.42373236122404L948.5633185824927 328.87096854212854ZM1020.7442231051059 298.2378027129828Q1019.5984944618897 299.2930790948923 1014.9251276277189 299.2930790948923L1014.9251276277189 299.2930790948923Q1010.7944743613873 299.2930790948923 1006.8748763714375 298.388556481827Q1002.9552783814877 297.5141846225305 1001.7793989845028 295.9161946727818L1001.7793989845028 295.9161946727818Q1000.5130673262113 294.31820472303303 1000.5130673262113 290.066948441626L1000.5130673262113 290.066948441626Q1000.5130673262113 285.93629517529433 1001.5683437081209 281.745340401425Q1002.6236200900305 277.5845363813245 1004.1010070247038 276.6197122607215L1004.1010070247038 276.6197122607215Q1005.6989969744525 275.4438328637366 1009.7391979794777 275.4438328637366L1009.7391979794777 275.4438328637366Q1013.7492482307339 275.4438328637366 1018.0005045121411 276.5594107531838Q1022.2517607935481 277.674988642631 1023.3070371754576 279.06192331599783L1023.3070371754576 279.06192331599783Q1024.4527658186737 280.5393102506712 1024.4527658186737 284.36845597931443L1024.4527658186737 284.36845597931443Q1024.4527658186737 288.3785062305707 1023.3371879292265 292.7202147732843Q1022.2517607935481 297.06192331599783 1020.7442231051059 298.2378027129828L1020.7442231051059 298.2378027129828ZM987.7894492357591 413.89609417026924L1003.2567859191761 409.43378261248023L1003.2567859191761 340.53931025067124L986.9452281302315 332.36845597931443L987.9100522508345 327.39358160745513L1022.2517607935481 320.48905899438984L1022.2517607935481 409.43378261248023L1039.7391979794777 414.10714944665114L1037.8095497382717 422.79056653207823L986.1914592860103 422.79056653207823L987.7894492357591 413.89609417026924ZM1106.4025145623923 328.7805162808219Q1098.9854291352567 328.87096854212854 1092.6236200900305 331.1021243210229Q1086.2618110448043 333.33328009991743 1080.9552783814877 338.63981276323403L1080.9552783814877 338.63981276323403Q1075.437690441789 344.33830522554564 1072.9653286327439 351.51418462253054Q1070.4628160699299 358.65991326574664 1070.4628160699299 366.6197122607214L1070.4628160699299 366.6197122607214Q1070.4628160699299 384.52925999941493 1079.357288431739 397.25287808986724L1079.357288431739 397.25287808986724Q1083.3070371754577 403.07197356725413 1089.427640190533 406.72021477328434Q1095.578393959377 410.39860673308334 1102.9050271252063 410.39860673308334L1102.9050271252063 410.39860673308334Q1107.0356803915379 410.39860673308334 1112.3422130548547 409.07197356725413Q1117.648745718171 407.74534040142504 1122.1412080297291 405.99659668283203Q1126.6336703412867 404.24785296423903 1128.4427155674175 403.19257658232954L1128.4427155674175 403.19257658232954L1130.884926622694 406.7805162808219Q1125.1562834066135 413.77549115519383 1115.7793989845027 419.62473738634964Q1106.4025145623923 425.44383286373653 1096.1211075272163 425.44383286373653L1096.1211075272163 425.44383286373653Q1081.3773889342515 425.44383286373653 1071.216584914151 418.75036552705313Q1061.0256301402817 412.08704894413853 1055.960303507116 400.75036552705313Q1050.864826120181 389.41368210996774 1050.864826120181 375.30312934614864L1050.864826120181 375.30312934614864Q1050.864826120181 357.06192331599783 1057.9502532558595 344.60966200946524Q1065.065831145307 332.15740070293253 1077.1562834066133 326.00664693408834Q1089.216584914151 319.855893165244 1104.291961798573 319.855893165244L1104.291961798573 319.855893165244Q1114.4527658186735 319.855893165244 1121.0256301402817 322.5091594969023L1121.0256301402817 322.5091594969023Q1124.3120623010857 323.89609417026924 1126.4829165724425 326.42875748685213Q1128.6537708437993 328.9915715572038 1128.6537708437993 332.27800371800794L1128.6537708437993 332.27800371800794Q1128.6537708437993 335.35338060243004 1126.754273356362 338.42875748685213Q1124.854775868925 341.50413437127423 1121.8698512458093 343.46393336624914Q1118.9150773764627 345.42373236122404 1116.141208029729 345.42373236122404L1116.141208029729 345.42373236122404Q1112.432665316161 345.42373236122404 1109.4778914468143 343.70513939639983L1109.4778914468143 343.70513939639983L1106.4025145623923 328.7805162808219Z " fill="#cc0033" transform="matrix(0.7737303908660559,0,0,0.7737303908660559,0,28.85093964477781)"/></g></svg>